<svg width="32" height="32" viewBox="0 0 32 32" fill="none" xmlns="http://www.w3.org/2000/svg">
<path fill-rule="evenodd" clip-rule="evenodd" d="M24 28H8C5.79467 28 4 26.2053 4 24V4H22.6667V17.3333H28V24C28 26.2053 26.2053 28 24 28ZM20.2285 25.3333H8C7.26533 25.3333 6.66667 24.7347 6.66667 24V6.66667H20V17.3333V18.6667V24C20 24.4673 20.0806 24.9161 20.2285 25.3333ZM24 25.3333C24.7347 25.3333 25.3333 24.7347 25.3333 24V20H22.6667V24C22.6667 24.7347 23.2653 25.3333 24 25.3333ZM9.33333 9.33333H17.3333V12H9.33333V9.33333ZM17.3333 14.6667H9.33333V17.3333H17.3333V14.6667ZM9.33333 20H14.6667V22.6667H9.33333V20Z" fill="white"/>
</svg>
